<?xml version="1.0" encoding="utf-8"?>
<!-- Generator: Adobe Illustrator 19.0.0, SVG Export Plug-In . SVG Version: 6.00 Build 0)  -->
<svg version="1.1" id="Camada_1" width="100%" height="100%"  xmlns="http://www.w3.org/2000/svg" xmlns:xlink="http://www.w3.org/1999/xlink" x="0px" y="0px"
	  xml:space="preserve">

<g id="XMLID_45_">
          <animateTransform attributeName="transform"
    type="translate"
    from="0 0"
    to="2000 0"
    begin="0s"
    dur="10s"
    repeatCount="indefinite"
  />
	<g id="XMLID_88_">
		<rect id="XMLID_43_" x="153.2" y="128.5" fill-rule="evenodd" clip-rule="evenodd" fill="#66676B" width="1.1" height="70.3"/>
		<rect id="XMLID_42_" x="118.6" y="163.1" fill-rule="evenodd" clip-rule="evenodd" fill="#66676B" width="70.4" height="1.1"/>
		
			<rect id="XMLID_41_" x="118.6" y="163.1" transform="matrix(0.7066 0.7076 -0.7076 0.7066 160.923 -60.8138)" fill-rule="evenodd" clip-rule="evenodd" fill="#66676B" width="70.3" height="1.1"/>
		
			<rect id="XMLID_40_" x="153.2" y="128.5" transform="matrix(0.7065 0.7077 -0.7077 0.7065 160.98 -60.8115)" fill-rule="evenodd" clip-rule="evenodd" fill="#66676B" width="1.1" height="70.3"/>
		<polygon id="XMLID_39_" fill-rule="evenodd" clip-rule="evenodd" fill="#66676B" points="166.4,196.5 140.1,131.3 141.2,130.8 
			167.5,196.1 		"/>
		
			<rect id="XMLID_38_" x="153.2" y="128.5" transform="matrix(0.3712 0.9285 -0.9285 0.3712 248.672 -39.9056)" fill-rule="evenodd" clip-rule="evenodd" fill="#66676B" width="1.1" height="70.3"/>
		<polygon id="XMLID_37_" fill-rule="evenodd" clip-rule="evenodd" fill="#66676B" points="185.9,177.9 121.2,150.4 121.7,149.4 
			186.4,176.9 		"/>
		
			<rect id="XMLID_36_" x="153.2" y="128.5" transform="matrix(0.9206 0.3904 -0.3904 0.9206 76.104 -47.0584)" fill-rule="evenodd" clip-rule="evenodd" fill="#66676B" width="1.1" height="70.3"/>
	</g>
	<path id="XMLID_85_" fill-rule="evenodd" clip-rule="evenodd" fill="#3B3B3E" d="M153.8,200.6c-20.4,0-37-16.6-36.9-37
		c0-20.4,16.6-37,37-36.9c20.4,0,37,16.6,36.9,37C190.8,184.1,174.2,200.6,153.8,200.6L153.8,200.6z M153.8,130.3L153.8,130.3
		c-18.4,0-33.4,14.9-33.4,33.4c0,18.4,15,33.4,33.4,33.4c18.4,0,33.4-15,33.4-33.4C187.2,145.3,172.2,130.3,153.8,130.3z"/>
	<path id="XMLID_82_" fill-rule="evenodd" clip-rule="evenodd" fill="#A9AAAF" d="M153.8,198.3c-19.1,0-34.6-15.5-34.6-34.6
		c0-19.1,15.5-34.6,34.6-34.6c19.1,0,34.6,15.5,34.6,34.6C188.4,182.8,172.9,198.3,153.8,198.3L153.8,198.3z M153.8,130.3
		L153.8,130.3c-18.4,0-33.4,14.9-33.4,33.4c0,18.4,15,33.4,33.4,33.4c18.4,0,33.4-15,33.4-33.4C187.2,145.3,172.2,130.3,153.8,130.3
		z"/>
	<polygon id="XMLID_31_" fill-rule="evenodd" clip-rule="evenodd" fill="#C4B29D" points="89.3,38.3 99.1,30.4 102.2,33.7 94.8,44 	
		"/>
	<g id="XMLID_78_">
		<polygon id="XMLID_30_" fill-rule="evenodd" clip-rule="evenodd" fill="#281511" points="73.8,135.4 70.3,141.1 74.5,143.8 
			78.7,136.4 		"/>
		<path id="XMLID_29_" fill-rule="evenodd" clip-rule="evenodd" fill="#C0895B" d="M71,139c0,0-0.8,3.4,4.8,4l5.6,7.9
			c0,0,0.5,0.9-0.4,2.1l-13.4-10.8C67.8,142.1,68.2,140.2,71,139z"/>
	</g>
	<g id="XMLID_69_">
		<rect id="XMLID_28_" x="44.8" y="128.4" fill-rule="evenodd" clip-rule="evenodd" fill="#66676B" width="1.1" height="70.3"/>
		<rect id="XMLID_27_" x="10.2" y="163" fill-rule="evenodd" clip-rule="evenodd" fill="#66676B" width="70.3" height="1.1"/>
		
			<rect id="XMLID_26_" x="10.2" y="163" transform="matrix(0.7066 0.7076 -0.7076 0.7066 129.0689 15.8728)" fill-rule="evenodd" clip-rule="evenodd" fill="#66676B" width="70.3" height="1.1"/>
		
			<rect id="XMLID_25_" x="44.8" y="128.4" transform="matrix(0.7067 0.7075 -0.7075 0.7067 129.0608 15.8712)" fill-rule="evenodd" clip-rule="evenodd" fill="#66676B" width="1.1" height="70.3"/>
		
			<rect id="XMLID_24_" x="10.2" y="163" transform="matrix(0.3739 0.9275 -0.9275 0.3739 180.1422 60.3223)" fill-rule="evenodd" clip-rule="evenodd" fill="#66676B" width="70.3" height="1.1"/>
		
			<rect id="XMLID_23_" x="44.8" y="128.4" transform="matrix(0.3753 0.9269 -0.9269 0.3753 179.9899 60.1241)" fill-rule="evenodd" clip-rule="evenodd" fill="#66676B" width="1.1" height="70.3"/>
		<polygon id="XMLID_22_" fill-rule="evenodd" clip-rule="evenodd" fill="#66676B" points="77.5,177.9 12.8,150.3 13.2,149.3 
			78,176.8 		"/>
		
			<rect id="XMLID_21_" x="44.8" y="128.4" transform="matrix(0.9216 0.3882 -0.3882 0.9216 67.0751 -4.7899)" fill-rule="evenodd" clip-rule="evenodd" fill="#66676B" width="1.1" height="70.3"/>
	</g>
	<path id="XMLID_66_" fill-rule="evenodd" clip-rule="evenodd" fill="#3B3B3E" d="M45.4,200.6c-20.4,0-37-16.6-36.9-37
		c0-20.4,16.6-37,37-36.9c20.4,0,37,16.6,36.9,37C82.3,184,65.7,200.6,45.4,200.6L45.4,200.6z M45.4,130.2L45.4,130.2
		C27,130.2,12,145.2,12,163.6C12,182,27,197,45.4,197c18.4,0,33.4-15,33.4-33.4C78.8,145.2,63.8,130.2,45.4,130.2z"/>
	<path id="XMLID_63_" fill-rule="evenodd" clip-rule="evenodd" fill="#A9AAAF" d="M45.4,198.2c-19.1,0-34.6-15.5-34.6-34.6
		c0-19.1,15.5-34.6,34.6-34.6c19.1,0,34.6,15.5,34.6,34.6C80,182.7,64.4,198.2,45.4,198.2L45.4,198.2z M45.4,130.2L45.4,130.2
		C27,130.2,12,145.2,12,163.6C12,182,27,197,45.4,197c18.4,0,33.4-15,33.4-33.4C78.8,145.2,63.8,130.2,45.4,130.2z"/>
	<polygon id="XMLID_16_" fill-rule="evenodd" clip-rule="evenodd" fill="#F1CE9E" points="78.5,83.7 105.7,107.3 78.2,139.4 
		72.7,137 91.1,108.6 68.4,93.9 67.8,86.7 	"/>
	<g id="XMLID_57_">
		<path id="XMLID_15_" fill-rule="evenodd" clip-rule="evenodd" fill="#99C24D" d="M89.9,173.4c-0.9,0-1.8-0.6-2-1.5l-21-73.6
			c-0.3-1.1,0.3-2.3,1.5-2.6c1.1-0.3,2.3,0.3,2.6,1.5l21,73.6c0.3,1.1-0.3,2.3-1.5,2.6C90.3,173.3,90.1,173.4,89.9,173.4z"/>
		<path id="XMLID_14_" fill-rule="evenodd" clip-rule="evenodd" fill="#99C24D" d="M90.2,174.5c-0.1,0-0.3,0-0.4,0L45.3,165
			c-0.7-0.1-1.2-0.6-1.5-1.2c-0.3-0.6-0.2-1.4,0.1-1.9l28.8-48.5c0.4-0.6,1.1-1,1.8-1l58.6-0.2c0,0,0,0,0,0c1.2,0,2.1,1,2.1,2.1
			c0,1.2-0.9,2.1-2.1,2.1l-57.4,0.2l-26.6,44.9l40.3,8.6l44.5-49.3c0.8-0.9,2.1-0.9,3-0.2c0.9,0.8,0.9,2.1,0.2,3l-45.4,50.2
			C91.3,174.2,90.7,174.5,90.2,174.5z"/>
		<path id="XMLID_13_" fill-rule="evenodd" clip-rule="evenodd" fill="#99C24D" d="M153.8,165.8c-0.8,0-1.7-0.5-2-1.4l-27.2-69.9
			c-0.4-1.1,0.1-2.3,1.2-2.8c1.1-0.4,2.3,0.1,2.8,1.2l27.2,69.9c0.4,1.1-0.1,2.3-1.2,2.8C154.3,165.8,154,165.8,153.8,165.8z"/>
		<path id="XMLID_12_" fill-rule="evenodd" clip-rule="evenodd" fill="#99C24D" d="M138.1,96.3l-11,0c-0.8,0-1.5-0.7-1.5-1.5
			c0-0.8,0.7-1.5,1.5-1.5l11,0c0.8,0,1.5,0.7,1.5,1.5C139.5,95.6,138.9,96.3,138.1,96.3z"/>
	</g>
	<path id="XMLID_11_" fill-rule="evenodd" clip-rule="evenodd" d="M139.2,111.8c-1.2,0-2.2-1-2.2-2.2c0-1.2,1-2.2,2.2-2.2
		c1.7,0,4.8-0.7,6-2.1c2.2-2.5,2.5-6.8,1.6-7.6c-0.8-0.7-5.3-1-9.3-0.7c-1.2,0.1-2.3-0.8-2.4-2.1c-0.1-1.2,0.8-2.3,2.1-2.4
		c0.1,0,2.4-0.2,4.9-0.1c5.2,0.1,6.9,1.2,7.7,1.9c3.3,3,2.1,10.2-1.3,13.9C146,111,141.3,111.8,139.2,111.8z"/>
	<path id="XMLID_10_" fill-rule="evenodd" clip-rule="evenodd" d="M78.7,93.7c2.4-0.8,5.1-1.4,5.9-2.1c0.8-0.7,0-2.2-2-2.4
		c-2-0.3-7.9,0-10.7,0.2c-2.8,0.2-9.7-0.4-11.9-0.8c-2.2-0.5-5.5-1.1-6.1,0.9c-0.6,2,1.8,1.9,3.7,2.8c1.9,0.9,4.9,2,6.3,3.4
		c1.4,1.4,3.5,3.6,7,1.9C74.4,95.7,76.5,94.4,78.7,93.7z"/>
	<polygon id="XMLID_9_" fill-rule="evenodd" clip-rule="evenodd" fill="#281511" points="78.7,158.1 79.8,164.7 84.7,163.9 
		83,155.6 	"/>
	<path id="XMLID_8_" fill-rule="evenodd" clip-rule="evenodd" fill="#F1CE9E" d="M61.6,83.7c0,0-5.1,3.3-0.3,18.1
		c4.8,14.8,18.4,62.4,18.4,62.4l4.9-0.6c0,0-10.3-73-9.8-75.5c0.5-2.5,3.7-4.3,3.7-4.3L61.6,83.7z"/>
	<path id="XMLID_7_" fill-rule="evenodd" clip-rule="evenodd" fill="#262424" d="M78.9,162.6c0,0,1.7,3,6.3-0.2l9.4,2.1
		c0,0,1,0.3,1.1,1.8l-17.2,0.8C78.6,167.1,77.6,165.4,78.9,162.6z"/>
	<polygon id="XMLID_6_" fill-rule="evenodd" clip-rule="evenodd" fill="#C4B29D" points="136,88.3 137.5,90.8 140.1,90 137.5,86.7 	
		"/>
	<path id="XMLID_5_" fill-rule="evenodd" clip-rule="evenodd" fill="#F1CE9E" d="M137.2,90.1c0,0-1,1.8-0.6,2.8
		c0.5,1,2.2,2.2,4.2,2.2c1.9,0,3-0.3,2.7-2.2c-0.3-1.9-0.2-3.3-1.7-3.4c-1.5-0.1-3.5,0-3.5,0L137.2,90.1z"/>
	<path id="XMLID_4_" fill-rule="evenodd" clip-rule="evenodd" fill="#F6E2C7" d="M96.2,22.8c0,0-1.1,6.9,3.4,11.5
		c4.5,4.6,7,6.2,11,5.3c3.9-0.9,5.1-7,4.5-11.7c0,0,3.7,0.4,3.4-1.9c-1.9-1.9-3.5-6.1-3.5-6.1s0-5-0.8-7.8
		c-0.8-2.8-6.3-5.6-10.9-4.1C98.7,9.4,96.1,15.6,96.2,22.8z"/>
	<path id="XMLID_3_" fill-rule="evenodd" clip-rule="evenodd" fill="#F1C930" d="M102.1,1.4c2.1-0.8,4-0.8,8.1,0.4
		c5.7,1.6,8.2,1.7,9.7,0.2c0,0-1,3-6.3,3.3c2.1,1.1,5,1.9,7.3-0.1c0,0-0.8,1.5-2.1,2.2c0,0,2.7,0.8,6.1-2.7c0,0-1.1,5.3-8.6,8.5
		c-0.5,0.2-1.2,0.5-1.7,0.8c-7.6,3.4-11.1,2.3-11.6,6.7c-0.1,1.3-0.3,4-1.3,5.3c0.2,1.2,0.5,2.4,0.8,3.6c2.5,9.8,12.2,12.7,9.1,13.9
		c-18.1,7-34-22-14.3-40.1c0.3-0.3,0.5-0.3,0.7-0.3C99,2.1,100.3,1.7,102.1,1.4z"/>
	<polygon id="XMLID_2_" fill-rule="evenodd" clip-rule="evenodd" fill="#D56B2B" points="78.5,83.7 105.7,98.1 64.5,120.5 
		57.8,90.8 61.3,82.1 	"/>
	<path id="XMLID_1_" fill-rule="evenodd" clip-rule="evenodd" fill="#D0512A" d="M57.8,92.3c0,0-0.4-15,2.3-21.3
		c2.7-6.3,29.2-36,29.2-36l49.6,52.4l-2.7,1.9L94.5,57.2L76,77.9l4.3,5.6L57.8,92.3z"/>
</g>
</svg>
